<?xml version="1.0" encoding="UTF-8"?>
<svg xmlns="http://www.w3.org/2000/svg" xmlns:xlink="http://www.w3.org/1999/xlink" width="144pt" height="144pt" viewBox="0 0 144 144" version="1.1">
<g id="surface8381639">
<path style=" stroke:none;fill-rule:nonzero;fill:rgb(100%,100%,100%);fill-opacity:1;" d="M 25.261719 42 L 25.417969 42 C 33.789062 42 39 36 39 28.5 C 38.84375 20.835938 33.789062 15 25.578125 15 C 17.367188 15 12 20.835938 12 28.5 C 12 36 17.207031 42 25.261719 42 Z M 12 51 L 39 51 L 39 129 L 12 129 Z M 132 79.5 C 132 63.757812 119.242188 51 103.5 51 C 94.339844 51 86.214844 55.339844 81 62.050781 L 81 51 L 54 51 L 54 129 L 81 129 L 81 84 C 81 77.371094 86.371094 72 93 72 C 99.628906 72 105 77.371094 105 84 L 105 129 L 132 129 C 132 129 132 83.863281 132 79.5 Z M 132 79.5 "/>
</g>
</svg>
